<?xml version="1.0" standalone="no"?><!DOCTYPE svg PUBLIC "-//W3C//DTD SVG 1.1//EN" "http://www.w3.org/Graphics/SVG/1.1/DTD/svg11.dtd"><svg t="1713873110109" class="icon" viewBox="0 0 1024 1024" version="1.1" xmlns="http://www.w3.org/2000/svg" p-id="5999" width="256" height="256" xmlns:xlink="http://www.w3.org/1999/xlink"><path d="M1024 0v1024H0V0z" fill="#F5F5F5" p-id="6000"></path><path d="M1024 0v1024H0V0z" fill="#000000" p-id="6001" data-spm-anchor-id="a313x.search_index.0.i22.40193a813DWjiT" class="selected"></path><path d="M723.263043 716.912076c116.55892 67.245531 116.55892 176.706312 0 243.951842a466.982853 466.982853 0 0 1-422.526086 0c-116.55892-67.245531-116.55892-176.706312 0-243.951842a466.982853 466.982853 0 0 1 422.526086 0z" fill="#080A0D" p-id="6002"></path><path d="M709.813937 725.878147c108.340022 62.388909 108.340022 164.004378 0 226.393287a433.360088 433.360088 0 0 1-392.265597 0c-108.340022-62.388909-108.340022-164.004378 0-226.393287a433.360088 433.360088 0 0 1 392.265597 0z" fill="#0B0E14" p-id="6003"></path><path d="M693.002554 734.470631c100.121124 57.905874 100.121124 151.302444 0 209.208318a399.737322 399.737322 0 0 1-362.005108 0c-100.121124-57.532287-100.121124-151.302444 0-209.208318a399.737322 399.737322 0 0 1 362.005108 0z" fill="#0F131B" p-id="6004"></path><path d="M677.685516 743.436702c91.528639 53.049252 91.528639 138.600511 0 191.649763a366.488143 366.488143 0 0 1-331.744619 0c-91.528639-53.049252-91.528639-138.600511 0-191.649763a366.488143 366.488143 0 0 1 331.744619 0z" fill="#131822" p-id="6005"></path><path d="M662.742065 752.029186c83.309741 48.19263 83.309741 125.898577 0 174.091208a332.865378 332.865378 0 0 1-301.110544 0c-83.309741-48.19263-83.309741-125.898577 0-174.091208a332.865378 332.865378 0 0 1 301.110544 0z" fill="#171D29" p-id="6006"></path><path d="M647.425027 760.995257c74.717256 43.336009 74.717256 112.075885 0 156.532653a298.869026 298.869026 0 0 1-270.850054 0c-74.717256-43.336009-74.717256-112.075885 0-156.532653a298.869026 298.869026 0 0 1 270.850054 0z" fill="#1B2230" p-id="6007"></path><path d="M632.481576 769.587742c66.498358 37.358628 66.498358 100.49471 0 138.974097a265.619847 265.619847 0 0 1-240.589566 0c-66.498358-37.358628-66.498358-100.49471 0-138.974097a265.619847 265.619847 0 0 1 240.589566 0z" fill="#1F2737" p-id="6008"></path><path d="M617.164538 778.553812c57.905874 33.622765 57.905874 87.792776 0 121.415542a231.997081 231.997081 0 0 1-210.329076 0c-57.905874-33.622765-57.905874-87.792776 0-121.415542a232.370668 232.370668 0 0 1 210.329076 0z" fill="#232C3F" p-id="6009"></path><path d="M601.847501 787.146297c49.686976 28.766144 49.686976 74.717256 0 103.856986a198.747902 198.747902 0 0 1-179.695002 0c-49.686976-28.766144-49.686976-74.717256 0-103.856986a198.747902 198.747902 0 0 1 179.695002 0z" fill="#273246" p-id="6010"></path><path d="M586.90405 796.112368a45.577526 45.577526 0 0 1 0 86.298431 165.125137 165.125137 0 0 1-149.434513 0 45.577526 45.577526 0 0 1 0-86.298431 165.125137 165.125137 0 0 1 149.434513 0z" fill="#2B374D" p-id="6011"></path><path d="M571.587012 804.704852a37.358628 37.358628 0 0 1 0 68.739876 131.502371 131.502371 0 0 1-119.174024 0 37.358628 37.358628 0 0 1 0-68.739876 131.502371 131.502371 0 0 1 119.174024 0z" fill="#2F3C54" p-id="6012"></path><path d="M556.269974 813.670923a26.898212 26.898212 0 0 1 0 51.181321 97.879606 97.879606 0 0 1-88.913535 0 26.898212 26.898212 0 0 1 0-51.181321 97.879606 97.879606 0 0 1 88.913535 0z" fill="#34415C" p-id="6013"></path><path d="M541.326523 821.889821a17.932142 17.932142 0 0 1 0 33.622766 64.630427 64.630427 0 0 1-58.27946 0 17.932142 17.932142 0 0 1 0-33.622766 64.630427 64.630427 0 0 1 58.27946 0z" fill="#384763" p-id="6014"></path><path d="M667.598687 192.770522l-18.305728-10.460416v30.260489a90.40788 90.40788 0 0 1 17.184969 16.06421V197.627143z" fill="#C4A00F" p-id="6015"></path><path d="M675.070412 632.481576v59.773805l-0.373586 3.735863-0.747173 4.109449-0.747172 4.109449-1.494345 3.735863-1.867932 4.109449-1.867931 3.735863-2.615104 4.109449-2.615104 3.735863-3.362277 3.735863-3.362276 3.735863-3.735863 3.735862-4.109449 3.362277-4.483035 3.362277-4.483036 2.98869-4.856622 2.98869-5.230207 2.98869-5.230208 2.615104-5.603795 2.615104-5.603794 2.241518-5.603794 2.241518-5.977381 1.867931-5.97738 1.867931-6.350967 1.867932-6.350967 1.494345-6.724553 1.120759-6.350967 1.120759-6.724553 0.747172-6.724553 0.747173-6.724553 0.747172-6.724553 0.373587h-20.920832l-6.724553-0.373587-7.098139-0.747172-6.724553-0.747173-6.724553-1.120759-7.09814-1.120758-6.350967-1.494346-6.724553-1.494345-6.724553-1.867931-6.350967-1.867932-6.350966-2.241517-5.977381-2.241518-5.603794-2.615104-5.603794-2.615104-5.230208-2.98869-4.856622-2.98869-4.483035-2.988691-4.483036-2.98869-4.109449-3.362276-3.735863-3.362277-3.362276-3.362277-2.98869-3.362276-2.988691-3.735863-2.615104-3.735863-2.241517-3.735863-1.867932-3.735862-1.494345-3.735863-1.494345-4.109449-0.747173-3.735863-0.747172-4.109449-0.373586-3.735863v-60.147391l0.373586 4.109449 0.747172 4.109449 0.747173 3.735863 1.494345 4.109449 1.494345 3.735862 1.867932 3.735863 2.241517 3.735863 2.615104 3.735863 2.988691 3.735863 2.98869 3.362276 3.362276 3.362277 3.735863 3.362276 4.109449 3.362277 4.483036 2.98869 4.483035 2.98869 4.856622 2.988691 5.230208 2.98869 5.603794 2.615104 5.603794 2.615104 5.977381 2.241518 6.350966 2.241517 6.350967 1.867932 6.724553 1.867931 6.724553 1.494345 6.350967 1.494345 7.09814 1.120759 6.724553 1.120759 6.724553 0.747173 7.098139 0.747172 6.724553 0.373586h20.920832l6.724553-0.373586 6.724553-0.747172 6.724553-0.747173 6.724553-0.747172 6.350967-1.120759 6.724553-1.494345 6.350967-1.494346 6.350967-1.494345 5.97738-1.867931 5.977381-1.867932 5.603794-2.241517 5.603794-2.241518 5.603795-2.615104 5.230208-2.615104 5.230207-2.98869 4.856622-2.98869 4.483036-2.988691 4.483035-3.362276 4.109449-3.362277 3.735863-3.735863 3.362276-3.735862 3.362277-3.735863 2.615104-3.735863 2.615104-4.109449 1.867931-3.735863 1.867932-4.109449 1.494345-3.735863 0.747172-4.109449 0.747173-4.109449 0.373586-3.735863z" fill="#2C3E50" p-id="6016"></path><path d="M461.005472 701.595038c-68.36629-22.788763-91.528639-74.717256-52.302079-112.075884s126.64575-53.049252 195.012039-30.260489 91.528639 74.717256 52.30208 112.075884-126.64575 53.049252-195.01204 30.260489z" fill="#415A73" p-id="6017"></path><path d="M533.481211 184.178037a204.725283 204.725283 0 0 0-100.121123 23.909522 70.234221 70.234221 0 0 0-41.468078 60.520978c2.615104 43.336009 37.358628 158.026997 78.826706 182.310106 84.056914 48.566217-33.996352 67.619117 23.162349 100.49471a7.471726 7.471726 0 0 1 3.735863 6.724553 7.845312 7.845312 0 0 1-5.97738 7.471726 104.604159 104.604159 0 0 0-48.566217 25.03028c-28.766144 28.766144-11.581175 65.377599 37.358628 81.815396a171.102517 171.102517 0 0 0 103.856987 0c49.686976-16.437796 66.498358-53.049252 37.358628-81.815396a104.604159 104.604159 0 0 0-48.566217-25.03028 7.845312 7.845312 0 0 1-5.97738-7.471726 7.471726 7.471726 0 0 1 3.735862-6.724553c57.158701-32.875593-60.894564-51.928493 23.16235-100.49471 42.21525-24.283108 74.717256-138.974097 78.826706-182.310106A70.234221 70.234221 0 0 0 635.09668 208.087559a204.725283 204.725283 0 0 0-101.615469-23.909522z" fill="#FAC13C" p-id="6018"></path><path d="M572.334185 678.059103a92.649398 92.649398 0 0 1 12.328347-3.362277c49.686976-16.437796 66.498358-53.049252 37.358628-81.815396a97.50602 97.50602 0 0 0-37.358628-22.415177h-2.241518l-7.471725-1.867931a7.845312 7.845312 0 0 1-5.977381-7.471726 7.471726 7.471726 0 0 1 3.735863-6.724553c57.158701-32.875593-60.894564-51.928493 23.162349-100.49471L597.738052 448.303539h9.339657l1.867931-1.867932 1.867932-1.867931V241.710325h-7.471726a261.510398 261.510398 0 0 0-74.717256-10.460416h-23.909523a219.668734 219.668734 0 0 1 83.309741 22.415177 69.860635 69.860635 0 0 1 44.456768 59.773805c7.845312 0.747173 2.615104 112.823057-44.083181 134.864648-84.056914 41.841664 31.754834 72.849325-22.415177 100.49471a7.471726 7.471726 0 0 0-4.109449 6.724553v12.328347a7.471726 7.471726 0 0 0 5.230208 7.471726c17.558555 5.977381 35.490697 11.954761 40.720904 23.909522a59.400219 59.400219 0 0 1-35.490696 78.826706z" fill="#F2CD46" p-id="6019"></path><path d="M339.963517 356.401313l-18.305728-10.460416 1.867932 7.09814 1.867931 7.471725 1.867931 7.471726v23.535936l11.954761 44.456768a133.743889 133.743889 0 0 0 17.184969 34.369938l4.109449 5.230207 4.483036 4.856622 4.856622 4.109449 5.230208 3.735863 18.305727 10.460416-5.230208-3.735863-4.856621-4.109449 1.494345-5.230208-4.109449-5.230208-3.735863-5.603794-3.362277-5.603794-3.362276-6.350967-2.98869-6.724553-2.988691-7.845312-2.615104-7.471726-11.954761-47.445458v-15.690624l-1.867931-7.471725-1.867932-7.471726z" fill="#D19917" p-id="6020"></path><path d="M674.696826 650.787304v27.271799l-0.373586 3.735862-0.747173 4.109449-1.120759 3.735863-1.494345 4.109449-1.494345 4.109449-2.241518 3.735863-2.241517 3.735863-2.615104 4.109449-3.362277 3.735863-3.362276 3.735863-4.10945 3.362276-3.735862 3.735863-4.483036 2.988691-4.483035 3.362276-4.856622 2.98869-5.230208 2.615104-5.230208 2.615104-5.230208 2.615104-5.603794 2.241518-5.97738 2.241518-5.977381 2.241517-5.97738 1.494345-6.350967 1.867932-6.350967 1.494345-6.350967 1.120759-6.724553 1.120759-6.350967 1.120759-6.724553 0.747172-6.724553 0.373586-6.724553 0.373587-7.098139 0.373586h-6.724553l-7.09814-0.373586-6.724553-0.373587-6.724553-0.747172-7.098139-0.747173-6.724553-0.747172-6.724553-1.494345-6.724554-1.120759-6.724553-1.867932-6.350966-1.494345-6.350967-2.241518-6.350967-2.241517-5.977381-2.241518-5.603794-2.615104-5.603794-2.615104-5.230208-2.615104-4.856622-2.98869-4.483035-2.98869-4.483035-3.362277-3.735863-2.98869-4.109449-3.362277-3.362277-3.362276-2.98869-3.735863-2.98869-3.735863-2.615104-3.362276-2.241518-3.735863-1.867932-3.735863-1.494345-4.109449-1.494345-3.735863-0.747172-3.735863-0.747173-4.109449-0.373586-3.735863v-27.271798l0.373586 4.109449 0.747173 3.735863 0.747172 4.109449 1.494345 3.735862 1.494345 3.735863 1.867932 3.735863 2.241518 3.735863 2.615104 3.735863 2.98869 3.735863 2.98869 3.362276 3.362277 3.362277 4.109449 3.362276 3.735863 3.362277 4.483035 2.98869 4.483035 3.362277 4.856622 2.615104 5.230208 2.98869 5.603794 2.615104 5.603794 2.615104 5.977381 2.241517 6.350967 2.241518 6.350967 1.867932 6.350966 1.867931 6.724553 1.494345 6.724554 1.494345 6.724553 1.120759 6.724553 1.120759 7.098139 0.747172 6.724553 0.747173 6.724553 0.373586h20.920832l6.724553-0.373586 6.724553-0.747173 6.724553-0.747172 6.350967-0.747173 6.724553-1.120758 6.350967-1.494346 6.350967-1.494345 6.350967-1.494345 5.97738-1.867931 5.977381-1.867932 5.97738-2.241517 5.603794-2.241518 5.230208-2.615104 5.230208-2.615104 5.230208-2.615104 4.856622-3.362277 4.483035-2.98869 4.483036-3.362276 3.735862-3.362277 4.10945-3.735863 3.362276-3.735863 3.362277-3.735862 2.615104-3.735863 2.241517-3.735863 2.241518-4.109449 1.494345-3.735863 1.494345-4.109449 1.120759-3.735863 0.747173-4.109449 0.373586-4.109449z" fill="#2C3E50" p-id="6021"></path><path d="M585.409704 752.029186v-27.271798l2.988691-0.747173 6.350967-1.494345 5.97738-1.867931 5.977381-1.867932 5.97738-2.241517 5.603794-2.241518 5.230208-2.615104 5.230208-2.615104 5.230208-2.615104 4.856622-3.362277 4.483035-2.98869 4.483036-3.362276 3.735862-3.362277 4.10945-3.735863 3.362276-3.735863 3.362277-3.735862 2.615104-3.735863 2.241517-3.735863 2.241518-4.109449 1.120759-2.615104 0.373586 0.373586v25.777454l-1.494345 3.735862-2.241518 3.735863-2.241517 3.735863-2.615104 4.109449-3.362277 3.735863-3.362276 3.735863-4.10945 3.362276-3.735862 3.735863-4.483036 2.988691-4.483035 3.362276-4.856622 2.98869-5.230208 2.615104-5.230208 2.615104-5.230208 2.615104-5.603794 2.241518-5.97738 2.241518-5.977381 2.241517-5.97738 1.494345-6.350967 1.867932-2.988691 0.747172z" fill="#E6EAEB" p-id="6022"></path><path d="M672.455308 668.345859a69.113462 69.113462 0 0 1-14.943451 21.668005 149.434513 149.434513 0 0 1-74.717256 37.358628v-2.241518a143.830719 143.830719 0 0 0 70.234221-34.743524 66.871945 66.871945 0 0 0 14.943451-21.294418z" fill="#BDC3C7" p-id="6023"></path><path d="M582.794601 723.636629l2.615103 1.494345v26.898212l-2.615103-1.494345v-26.898212z" fill="#808080" p-id="6024"></path><path d="M485.662167 453.160161a108.713608 108.713608 0 0 1-47.071871 16.811382h-27.271799l-4.109449-2.241517a67.619117 67.619117 0 0 0 88.166362 2.98869l5.977381-2.98869a97.132433 97.132433 0 0 0-15.690624-14.569865z" fill="#D1AF27" p-id="6025"></path><path d="M667.972273 304.099234c15.317038-53.049252 21.668004-107.592849 32.502006-155.78548l-85.924844 49.686976a151.676031 151.676031 0 0 1 17.932141 8.592484l2.615104 2.615104 29.513316-17.184969c-2.241518 10.834002-4.109449 23.535936-6.724553 37.358628a56.411529 56.411529 0 0 1 13.07552 29.513317 47.071872 47.071872 0 0 1 0 7.845312 237.974462 237.974462 0 0 1-2.98869 37.358628z" fill="#FAC13C" p-id="6026"></path><path d="M540.952937 186.793141a201.736592 201.736592 0 0 0-98.626779 23.535936 69.487049 69.487049 0 0 0-40.720904 59.773805c2.615104 42.588836 37.358628 155.78548 77.705946 179.695002 81.068223 46.698285-28.392557 68.36629 19.426487 99.747537a7.471726 7.471726 0 0 1 3.362277 6.724553V560.379424a7.845312 7.845312 0 0 1-5.977381 7.471725 74.717256 74.717256 0 0 0-53.422838 33.996352c-12.328347 25.403867 5.977381 53.422838 47.445457 67.245531a168.861 168.861 0 0 0 74.717257 6.350967c-63.883254-8.218898-104.977745-44.830354-99.000365-69.113463s43.709595-19.800073 54.170011-48.19263c2.98869-8.592484 0-8.592484-5.97738-15.317038-45.20394-46.698285 60.894564-53.422838-22.041591-101.241882C448.303539 419.537395 448.303539 313.438891 445.688435 270.850055A69.487049 69.487049 0 0 1 485.662167 211.07625a189.781831 189.781831 0 0 1 74.717257-22.415177z" fill="#D19917" p-id="6027"></path><path d="M632.481576 206.219628a221.536665 221.536665 0 0 0-200.615834 0c-55.29077 32.12842-55.29077 84.056914 0 115.811747a221.910252 221.910252 0 0 0 200.615834 0c55.664356-31.754834 55.664356-83.683327 0-115.811747z" fill="#FFD94F" p-id="6028"></path><path d="M607.077709 221.163079a165.498723 165.498723 0 0 0-149.434513 0 45.577526 45.577526 0 0 0 0 86.298431 165.498723 165.498723 0 0 0 149.434513 0 45.577526 45.577526 0 0 0 0-86.298431z" fill="#C4A00F" p-id="6029"></path><path d="M700.474279 149.434513l-18.305727-10.460416-13.449107 7.845312-13.449106 7.845312-13.449106 7.845312-13.449106 7.845312-13.449106 7.845312-13.07552 7.471725-13.449106 7.845312a204.351696 204.351696 0 0 1 25.030281 6.724553l7.098139-4.109449L635.09668 186.793141l13.449106-7.845312 13.449106-7.845312 10.460416-7.471725 13.449106-7.845312 14.569865-6.350967zM407.209048 298.869026l-6.724553 3.735863-26.898213 11.954761-13.449106 7.845312-13.449106 7.845312-28.392557 16.437796 18.305727 10.460416 13.449107-7.845312 13.449106-7.845312 13.449106-7.845312 25.403867-14.569865 13.07552-7.471725a74.717256 74.717256 0 0 1-8.218898-15.317038z" fill="#FFD94F" p-id="6030"></path><path d="M339.963517 356.401313l9.713243 37.358629 11.954761 47.445457c12.701934 50.060562 40.720905 82.562568 104.230573 59.773806a369.85042 369.85042 0 0 0 40.720905-18.305728 9.713243 9.713243 0 0 0 0-7.09814 39.973732 39.973732 0 0 0-8.592485-11.207588 99.373951 99.373951 0 0 1-51.928493 16.811383 63.883254 63.883254 0 0 1-57.905874-53.796425l-11.207588-41.468077c-2.241518-8.592484-3.362277-16.811383-5.230208-23.535936l39.973732-23.16235 10.08683-2.98869a74.717256 74.717256 0 0 1-4.856622-22.788763z" fill="#FAC13C" p-id="6031"></path></svg>